<svg viewBox="0 0 295 60" xmlns="http://www.w3.org/2000/svg">
  <g fill="rgb(255, 255, 255)">
    <path d="M 30 0 A 30 30 0 0 1 60 30 L 50 30 A 20 20 0 0 0 30 10 Z"/>
    <path d="M 30 60 A 30 30 0 0 1 0 30 L 10 30 A 20 20 0 0 0 30 50 Z"/>
    <path d="M 30 14 A 16 16 0 0 0 46 30 A 16 16 0 0 0 30 46 A 16 16 0 0 0 14 30 A 16 16 0 0 0 30 14 Z"/>
  </g>
  <g stroke="rgb(255, 255, 255)" stroke-width="3" fill="none" stroke-linecap="butt" stroke-linejoin="miter">
    <path d="M 110 10 L 80 10 A 10 10 0 0 0 80 30 L 100 30 A 10 10 0 0 1 100 50 L 70 50"/>
    <path d="M 160 10 L 125 10 L 125 50 L 160 50 M 125 30 L 152 30"/>
    <path d="M 175 10 L 175 50 L 205 50"/>
    <path d="M 220 10 L 220 50"/>
    <path d="M 235 50 L 235 10 L 260 50 L 285 10 L 285 50"/>
  </g>
</svg>
